<mxfile host="app.diagrams.net" modified="2020-10-09T21:21:58.869Z" agent="5.0 (Macintosh; Intel Mac OS X 10_15_7) AppleWebKit/605.1.15 (KHTML, like Gecko) Version/14.0 Safari/605.1.15" etag="8buScgbFxesGUYDBuBIi" version="13.7.9" type="github">
  <diagram id="mW7YW3U4538J2U-uogiI" name="Page-1">
    <mxGraphModel dx="770" dy="764" grid="1" gridSize="10" guides="1" tooltips="1" connect="1" arrows="1" fold="1" page="1" pageScale="1" pageWidth="827" pageHeight="1169" math="0" shadow="0">
      <root>
        <mxCell id="0" />
        <mxCell id="1" parent="0" />
        <mxCell id="94n4iXLQpMmo2gylNXlQ-1" value="" style="endArrow=diamondThin;endFill=0;endSize=10;html=1;entryX=0.25;entryY=0;entryDx=0;entryDy=0;startSize=10;exitX=0;exitY=0.5;exitDx=0;exitDy=0;spacing=6;rounded=0;" parent="1" source="94n4iXLQpMmo2gylNXlQ-2" target="94n4iXLQpMmo2gylNXlQ-3" edge="1">
          <mxGeometry width="160" relative="1" as="geometry">
            <mxPoint x="185" y="170" as="sourcePoint" />
            <mxPoint x="490" y="390" as="targetPoint" />
            <Array as="points">
              <mxPoint x="158" y="180" />
            </Array>
          </mxGeometry>
        </mxCell>
        <mxCell id="94n4iXLQpMmo2gylNXlQ-5" value="*" style="edgeLabel;html=1;align=center;verticalAlign=middle;resizable=0;points=[];fontColor=#012656;" parent="94n4iXLQpMmo2gylNXlQ-1" vertex="1" connectable="0">
          <mxGeometry x="-0.7391" y="-3" relative="1" as="geometry">
            <mxPoint y="-5" as="offset" />
          </mxGeometry>
        </mxCell>
        <mxCell id="94n4iXLQpMmo2gylNXlQ-2" value="Controlled Item" style="html=1;strokeColor=#012656;fillColor=none;fontColor=#012656;fontFamily=TitilliumText25L;" parent="1" vertex="1">
          <mxGeometry x="200" y="160" width="110" height="40" as="geometry" />
        </mxCell>
        <mxCell id="94n4iXLQpMmo2gylNXlQ-3" value="CM Aggregate" style="html=1;strokeColor=#012656;fillColor=none;fontColor=#012656;fontFamily=TitilliumText25L;" parent="1" vertex="1">
          <mxGeometry x="130" y="250" width="110" height="40" as="geometry" />
        </mxCell>
        <mxCell id="94n4iXLQpMmo2gylNXlQ-4" value="Configuration Item" style="html=1;strokeColor=#012656;fillColor=none;fontColor=#012656;fontFamily=TitilliumText25L;" parent="1" vertex="1">
          <mxGeometry x="280" y="250" width="110" height="40" as="geometry" />
        </mxCell>
        <mxCell id="94n4iXLQpMmo2gylNXlQ-6" value="" style="endArrow=block;endSize=10;endFill=0;html=1;fontColor=#012656;entryX=0.5;entryY=1;entryDx=0;entryDy=0;exitX=0.5;exitY=0;exitDx=0;exitDy=0;rounded=0;" parent="1" source="94n4iXLQpMmo2gylNXlQ-3" target="94n4iXLQpMmo2gylNXlQ-2" edge="1">
          <mxGeometry x="0.1538" width="160" relative="1" as="geometry">
            <mxPoint x="200" y="390" as="sourcePoint" />
            <mxPoint x="360" y="390" as="targetPoint" />
            <Array as="points">
              <mxPoint x="185" y="230" />
              <mxPoint x="255" y="230" />
            </Array>
            <mxPoint as="offset" />
          </mxGeometry>
        </mxCell>
        <mxCell id="94n4iXLQpMmo2gylNXlQ-7" value="" style="endArrow=block;endSize=10;endFill=0;html=1;fontColor=#012656;entryX=0.5;entryY=1;entryDx=0;entryDy=0;exitX=0.5;exitY=0;exitDx=0;exitDy=0;rounded=0;" parent="1" source="94n4iXLQpMmo2gylNXlQ-4" target="94n4iXLQpMmo2gylNXlQ-2" edge="1">
          <mxGeometry x="0.1538" width="160" relative="1" as="geometry">
            <mxPoint x="195" y="270" as="sourcePoint" />
            <mxPoint x="265" y="210" as="targetPoint" />
            <Array as="points">
              <mxPoint x="335" y="230" />
              <mxPoint x="255" y="230" />
            </Array>
            <mxPoint as="offset" />
          </mxGeometry>
        </mxCell>
        <mxCell id="94n4iXLQpMmo2gylNXlQ-8" value="Version" style="html=1;strokeColor=#012656;fillColor=none;fontColor=#012656;fontFamily=TitilliumText25L;" parent="1" vertex="1">
          <mxGeometry x="430" y="250" width="110" height="40" as="geometry" />
        </mxCell>
        <mxCell id="94n4iXLQpMmo2gylNXlQ-9" value="" style="endArrow=diamondThin;endFill=0;endSize=10;html=1;entryX=1;entryY=0.5;entryDx=0;entryDy=0;startSize=10;exitX=0.5;exitY=0;exitDx=0;exitDy=0;spacing=6;rounded=0;" parent="1" source="94n4iXLQpMmo2gylNXlQ-8" target="94n4iXLQpMmo2gylNXlQ-2" edge="1">
          <mxGeometry width="160" relative="1" as="geometry">
            <mxPoint x="210" y="190" as="sourcePoint" />
            <mxPoint x="167.5" y="260" as="targetPoint" />
            <Array as="points">
              <mxPoint x="485" y="180" />
            </Array>
          </mxGeometry>
        </mxCell>
        <mxCell id="94n4iXLQpMmo2gylNXlQ-10" value="*" style="edgeLabel;html=1;align=center;verticalAlign=middle;resizable=0;points=[];fontColor=#012656;" parent="94n4iXLQpMmo2gylNXlQ-9" vertex="1" connectable="0">
          <mxGeometry x="-0.7391" y="-3" relative="1" as="geometry">
            <mxPoint x="2" y="22" as="offset" />
          </mxGeometry>
        </mxCell>
        <mxCell id="94n4iXLQpMmo2gylNXlQ-13" value="Release" style="html=1;strokeColor=#012656;fillColor=none;fontColor=#012656;fontFamily=TitilliumText25L;" parent="1" vertex="1">
          <mxGeometry x="370" y="320" width="110" height="40" as="geometry" />
        </mxCell>
        <mxCell id="94n4iXLQpMmo2gylNXlQ-14" value="Promotion" style="html=1;strokeColor=#012656;fillColor=none;fontColor=#012656;fontFamily=TitilliumText25L;" parent="1" vertex="1">
          <mxGeometry x="500" y="320" width="110" height="40" as="geometry" />
        </mxCell>
        <mxCell id="94n4iXLQpMmo2gylNXlQ-15" value="Revision" style="html=1;strokeColor=#012656;fillColor=none;fontColor=#012656;fontFamily=TitilliumText25L;" parent="1" vertex="1">
          <mxGeometry x="630" y="320" width="110" height="40" as="geometry" />
        </mxCell>
        <mxCell id="94n4iXLQpMmo2gylNXlQ-16" value="" style="endArrow=block;endSize=10;endFill=0;html=1;fontColor=#012656;entryX=0.5;entryY=1;entryDx=0;entryDy=0;rounded=0;exitX=0.5;exitY=0;exitDx=0;exitDy=0;" parent="1" source="94n4iXLQpMmo2gylNXlQ-15" target="94n4iXLQpMmo2gylNXlQ-8" edge="1">
          <mxGeometry x="0.1538" width="160" relative="1" as="geometry">
            <mxPoint x="690" y="320" as="sourcePoint" />
            <mxPoint x="600" y="270" as="targetPoint" />
            <Array as="points">
              <mxPoint x="685" y="310" />
              <mxPoint x="485" y="310" />
            </Array>
            <mxPoint as="offset" />
          </mxGeometry>
        </mxCell>
        <mxCell id="94n4iXLQpMmo2gylNXlQ-17" value="" style="endArrow=block;endSize=10;endFill=0;html=1;fontColor=#012656;entryX=0.5;entryY=1;entryDx=0;entryDy=0;rounded=0;exitX=0.5;exitY=0;exitDx=0;exitDy=0;" parent="1" source="94n4iXLQpMmo2gylNXlQ-14" target="94n4iXLQpMmo2gylNXlQ-8" edge="1">
          <mxGeometry x="0.1538" width="160" relative="1" as="geometry">
            <mxPoint x="560" y="330" as="sourcePoint" />
            <mxPoint x="360" y="290" as="targetPoint" />
            <Array as="points">
              <mxPoint x="555" y="310" />
              <mxPoint x="485" y="310" />
            </Array>
            <mxPoint as="offset" />
          </mxGeometry>
        </mxCell>
        <mxCell id="94n4iXLQpMmo2gylNXlQ-18" value="" style="endArrow=block;endSize=10;endFill=0;html=1;fontColor=#012656;entryX=0.5;entryY=1;entryDx=0;entryDy=0;rounded=0;exitX=0.5;exitY=0;exitDx=0;exitDy=0;" parent="1" source="94n4iXLQpMmo2gylNXlQ-13" target="94n4iXLQpMmo2gylNXlQ-8" edge="1">
          <mxGeometry x="0.1538" width="160" relative="1" as="geometry">
            <mxPoint x="570" y="340" as="sourcePoint" />
            <mxPoint x="495" y="300" as="targetPoint" />
            <Array as="points">
              <mxPoint x="425" y="310" />
              <mxPoint x="460" y="310" />
              <mxPoint x="485" y="310" />
            </Array>
            <mxPoint as="offset" />
          </mxGeometry>
        </mxCell>
      </root>
    </mxGraphModel>
  </diagram>
</mxfile>
